<mxfile host="app.diagrams.net" modified="2024-04-03T06:33:28.953Z" agent="Mozilla/5.0 (Windows NT 10.0; Win64; x64) AppleWebKit/537.36 (KHTML, like Gecko) Chrome/120.0.0.0 YaBrowser/24.1.0.0 Safari/537.36" etag="rKz2MqfOf8PU4FEYj2cb" version="24.2.1" type="github">
  <diagram name="Страница — 1" id="JRbik6_uBZYvw-bBDiSD">
    <mxGraphModel dx="3465" dy="1958" grid="1" gridSize="10" guides="1" tooltips="1" connect="1" arrows="1" fold="1" page="1" pageScale="1" pageWidth="1169" pageHeight="827" math="0" shadow="0">
      <root>
        <mxCell id="0" />
        <mxCell id="1" parent="0" />
        <mxCell id="XGVx-LcwlVfjTN6PvsQ9-49" style="edgeStyle=orthogonalEdgeStyle;rounded=0;orthogonalLoop=1;jettySize=auto;html=1;exitX=0.5;exitY=1;exitDx=0;exitDy=0;entryX=0.794;entryY=-0.011;entryDx=0;entryDy=0;entryPerimeter=0;" edge="1" parent="1" source="XGVx-LcwlVfjTN6PvsQ9-43" target="XGVx-LcwlVfjTN6PvsQ9-48">
          <mxGeometry relative="1" as="geometry" />
        </mxCell>
        <mxCell id="XGVx-LcwlVfjTN6PvsQ9-89" style="edgeStyle=orthogonalEdgeStyle;rounded=0;orthogonalLoop=1;jettySize=auto;html=1;entryX=0.5;entryY=0;entryDx=0;entryDy=0;" edge="1" parent="1" source="XGVx-LcwlVfjTN6PvsQ9-48" target="XGVx-LcwlVfjTN6PvsQ9-88">
          <mxGeometry relative="1" as="geometry" />
        </mxCell>
        <mxCell id="XGVx-LcwlVfjTN6PvsQ9-48" value="nginx" style="rounded=0;whiteSpace=wrap;html=1;rotation=-90;" vertex="1" parent="1">
          <mxGeometry x="165" y="760" width="1380" height="40" as="geometry" />
        </mxCell>
        <mxCell id="XGVx-LcwlVfjTN6PvsQ9-50" value="" style="group" vertex="1" connectable="0" parent="1">
          <mxGeometry x="39.99999999999997" y="60" width="740" height="620" as="geometry" />
        </mxCell>
        <mxCell id="XGVx-LcwlVfjTN6PvsQ9-1" value="Контейнер с микросервисом" style="rounded=0;whiteSpace=wrap;html=1;" vertex="1" parent="XGVx-LcwlVfjTN6PvsQ9-50">
          <mxGeometry x="350" y="30" width="190" height="40" as="geometry" />
        </mxCell>
        <mxCell id="XGVx-LcwlVfjTN6PvsQ9-2" value="Контейнер с микросервисом" style="rounded=0;whiteSpace=wrap;html=1;" vertex="1" parent="XGVx-LcwlVfjTN6PvsQ9-50">
          <mxGeometry x="350" y="130" width="190" height="40" as="geometry" />
        </mxCell>
        <mxCell id="XGVx-LcwlVfjTN6PvsQ9-3" value="..." style="rounded=0;whiteSpace=wrap;html=1;strokeColor=default;" vertex="1" parent="XGVx-LcwlVfjTN6PvsQ9-50">
          <mxGeometry x="350" y="80" width="190" height="40" as="geometry" />
        </mxCell>
        <mxCell id="XGVx-LcwlVfjTN6PvsQ9-4" value="Том с БД" style="rounded=0;whiteSpace=wrap;html=1;" vertex="1" parent="XGVx-LcwlVfjTN6PvsQ9-50">
          <mxGeometry x="350" y="410" width="120" height="40" as="geometry" />
        </mxCell>
        <mxCell id="XGVx-LcwlVfjTN6PvsQ9-5" value="Том со статикой" style="rounded=0;whiteSpace=wrap;html=1;" vertex="1" parent="XGVx-LcwlVfjTN6PvsQ9-50">
          <mxGeometry x="350" y="480" width="180" height="40" as="geometry" />
        </mxCell>
        <mxCell id="XGVx-LcwlVfjTN6PvsQ9-28" style="edgeStyle=orthogonalEdgeStyle;rounded=0;orthogonalLoop=1;jettySize=auto;html=1;entryX=0.5;entryY=0;entryDx=0;entryDy=0;exitX=0.111;exitY=0.084;exitDx=0;exitDy=0;exitPerimeter=0;dashed=1;" edge="1" parent="XGVx-LcwlVfjTN6PvsQ9-50" source="XGVx-LcwlVfjTN6PvsQ9-6" target="XGVx-LcwlVfjTN6PvsQ9-4">
          <mxGeometry relative="1" as="geometry" />
        </mxCell>
        <mxCell id="XGVx-LcwlVfjTN6PvsQ9-29" style="edgeStyle=orthogonalEdgeStyle;rounded=0;orthogonalLoop=1;jettySize=auto;html=1;exitX=-0.016;exitY=0.153;exitDx=0;exitDy=0;exitPerimeter=0;dashed=1;" edge="1" parent="XGVx-LcwlVfjTN6PvsQ9-50" source="XGVx-LcwlVfjTN6PvsQ9-6" target="XGVx-LcwlVfjTN6PvsQ9-5">
          <mxGeometry relative="1" as="geometry">
            <mxPoint x="320" y="250" as="sourcePoint" />
          </mxGeometry>
        </mxCell>
        <mxCell id="XGVx-LcwlVfjTN6PvsQ9-6" value="docker-compose" style="rounded=0;whiteSpace=wrap;html=1;textDirection=vertical-rl;rotation=-180;" vertex="1" parent="XGVx-LcwlVfjTN6PvsQ9-50">
          <mxGeometry x="270" y="30" width="45" height="260" as="geometry" />
        </mxCell>
        <mxCell id="XGVx-LcwlVfjTN6PvsQ9-11" value="Проект dev1" style="rounded=0;whiteSpace=wrap;html=1;fillColor=none;labelPosition=center;verticalLabelPosition=top;align=center;verticalAlign=bottom;dashed=1;" vertex="1" parent="XGVx-LcwlVfjTN6PvsQ9-50">
          <mxGeometry x="180.00000000000003" width="560" height="620" as="geometry" />
        </mxCell>
        <mxCell id="XGVx-LcwlVfjTN6PvsQ9-12" value="Порты, тома" style="rounded=0;whiteSpace=wrap;html=1;textDirection=vertical-rl;rotation=-180;" vertex="1" parent="XGVx-LcwlVfjTN6PvsQ9-50">
          <mxGeometry x="560" y="30" width="45" height="490" as="geometry" />
        </mxCell>
        <mxCell id="XGVx-LcwlVfjTN6PvsQ9-24" style="edgeStyle=orthogonalEdgeStyle;rounded=0;orthogonalLoop=1;jettySize=auto;html=1;exitX=0;exitY=0.5;exitDx=0;exitDy=0;entryX=0;entryY=0.5;entryDx=0;entryDy=0;" edge="1" parent="XGVx-LcwlVfjTN6PvsQ9-50" source="XGVx-LcwlVfjTN6PvsQ9-14" target="XGVx-LcwlVfjTN6PvsQ9-25">
          <mxGeometry relative="1" as="geometry" />
        </mxCell>
        <mxCell id="XGVx-LcwlVfjTN6PvsQ9-14" value="Репозиторий, ветка dev1" style="rounded=0;whiteSpace=wrap;html=1;textDirection=vertical-rl;rotation=-180;" vertex="1" parent="XGVx-LcwlVfjTN6PvsQ9-50">
          <mxGeometry x="2.842170943040401e-14" y="30" width="45" height="390" as="geometry" />
        </mxCell>
        <mxCell id="XGVx-LcwlVfjTN6PvsQ9-22" style="edgeStyle=orthogonalEdgeStyle;rounded=0;orthogonalLoop=1;jettySize=auto;html=1;entryX=0.5;entryY=0;entryDx=0;entryDy=0;" edge="1" parent="XGVx-LcwlVfjTN6PvsQ9-50" source="XGVx-LcwlVfjTN6PvsQ9-15" target="XGVx-LcwlVfjTN6PvsQ9-6">
          <mxGeometry relative="1" as="geometry" />
        </mxCell>
        <mxCell id="XGVx-LcwlVfjTN6PvsQ9-15" value=".env" style="rounded=0;whiteSpace=wrap;html=1;textDirection=vertical-rl;rotation=-180;" vertex="1" parent="XGVx-LcwlVfjTN6PvsQ9-50">
          <mxGeometry x="270" y="330" width="45" height="80" as="geometry" />
        </mxCell>
        <mxCell id="XGVx-LcwlVfjTN6PvsQ9-18" value="" style="endArrow=none;html=1;rounded=0;exitX=0;exitY=0.5;exitDx=0;exitDy=0;entryX=0.006;entryY=0.923;entryDx=0;entryDy=0;entryPerimeter=0;dashed=1;" edge="1" parent="XGVx-LcwlVfjTN6PvsQ9-50" source="XGVx-LcwlVfjTN6PvsQ9-1" target="XGVx-LcwlVfjTN6PvsQ9-6">
          <mxGeometry width="50" height="50" relative="1" as="geometry">
            <mxPoint x="570" y="250" as="sourcePoint" />
            <mxPoint x="320" y="50" as="targetPoint" />
          </mxGeometry>
        </mxCell>
        <mxCell id="XGVx-LcwlVfjTN6PvsQ9-20" value="" style="endArrow=none;html=1;rounded=0;exitX=0;exitY=0.5;exitDx=0;exitDy=0;entryX=0.006;entryY=0.923;entryDx=0;entryDy=0;entryPerimeter=0;" edge="1" parent="XGVx-LcwlVfjTN6PvsQ9-50" source="XGVx-LcwlVfjTN6PvsQ9-4">
          <mxGeometry width="50" height="50" relative="1" as="geometry">
            <mxPoint x="280" y="429.58000000000004" as="sourcePoint" />
            <mxPoint x="245.00000000000003" y="429.58000000000004" as="targetPoint" />
          </mxGeometry>
        </mxCell>
        <mxCell id="XGVx-LcwlVfjTN6PvsQ9-21" value="" style="endArrow=none;html=1;rounded=0;exitX=0;exitY=0.5;exitDx=0;exitDy=0;entryX=0.006;entryY=0.923;entryDx=0;entryDy=0;entryPerimeter=0;" edge="1" parent="XGVx-LcwlVfjTN6PvsQ9-50" source="XGVx-LcwlVfjTN6PvsQ9-5">
          <mxGeometry width="50" height="50" relative="1" as="geometry">
            <mxPoint x="280" y="499.58000000000004" as="sourcePoint" />
            <mxPoint x="245.00000000000003" y="499.58000000000004" as="targetPoint" />
          </mxGeometry>
        </mxCell>
        <mxCell id="XGVx-LcwlVfjTN6PvsQ9-23" value="Docker" style="rounded=0;whiteSpace=wrap;html=1;fillColor=none;labelPosition=center;verticalLabelPosition=top;align=center;verticalAlign=bottom;dashed=1;" vertex="1" parent="XGVx-LcwlVfjTN6PvsQ9-50">
          <mxGeometry x="260" y="20" width="290" height="510" as="geometry" />
        </mxCell>
        <mxCell id="XGVx-LcwlVfjTN6PvsQ9-27" style="edgeStyle=orthogonalEdgeStyle;rounded=0;orthogonalLoop=1;jettySize=auto;html=1;entryX=0.989;entryY=0.658;entryDx=0;entryDy=0;entryPerimeter=0;" edge="1" parent="XGVx-LcwlVfjTN6PvsQ9-50" source="XGVx-LcwlVfjTN6PvsQ9-25" target="XGVx-LcwlVfjTN6PvsQ9-26">
          <mxGeometry relative="1" as="geometry" />
        </mxCell>
        <mxCell id="XGVx-LcwlVfjTN6PvsQ9-25" value="CI/CD" style="rounded=0;whiteSpace=wrap;html=1;" vertex="1" parent="XGVx-LcwlVfjTN6PvsQ9-50">
          <mxGeometry x="70.00000000000003" y="205" width="95" height="40" as="geometry" />
        </mxCell>
        <mxCell id="XGVx-LcwlVfjTN6PvsQ9-26" value="ФС хоста, каталог проекта dev1" style="rounded=0;whiteSpace=wrap;html=1;textDirection=vertical-rl;rotation=-180;" vertex="1" parent="XGVx-LcwlVfjTN6PvsQ9-50">
          <mxGeometry x="200.00000000000003" y="30" width="45" height="570" as="geometry" />
        </mxCell>
        <mxCell id="XGVx-LcwlVfjTN6PvsQ9-30" style="edgeStyle=orthogonalEdgeStyle;rounded=0;orthogonalLoop=1;jettySize=auto;html=1;entryX=1.034;entryY=0.184;entryDx=0;entryDy=0;entryPerimeter=0;" edge="1" parent="XGVx-LcwlVfjTN6PvsQ9-50" source="XGVx-LcwlVfjTN6PvsQ9-4" target="XGVx-LcwlVfjTN6PvsQ9-12">
          <mxGeometry relative="1" as="geometry" />
        </mxCell>
        <mxCell id="XGVx-LcwlVfjTN6PvsQ9-31" style="edgeStyle=orthogonalEdgeStyle;rounded=0;orthogonalLoop=1;jettySize=auto;html=1;entryX=1.018;entryY=0.041;entryDx=0;entryDy=0;entryPerimeter=0;" edge="1" parent="XGVx-LcwlVfjTN6PvsQ9-50" source="XGVx-LcwlVfjTN6PvsQ9-5" target="XGVx-LcwlVfjTN6PvsQ9-12">
          <mxGeometry relative="1" as="geometry" />
        </mxCell>
        <mxCell id="XGVx-LcwlVfjTN6PvsQ9-32" style="edgeStyle=orthogonalEdgeStyle;rounded=0;orthogonalLoop=1;jettySize=auto;html=1;entryX=0.963;entryY=0.959;entryDx=0;entryDy=0;entryPerimeter=0;" edge="1" parent="XGVx-LcwlVfjTN6PvsQ9-50" source="XGVx-LcwlVfjTN6PvsQ9-1" target="XGVx-LcwlVfjTN6PvsQ9-12">
          <mxGeometry relative="1" as="geometry" />
        </mxCell>
        <mxCell id="XGVx-LcwlVfjTN6PvsQ9-35" style="edgeStyle=orthogonalEdgeStyle;rounded=0;orthogonalLoop=1;jettySize=auto;html=1;entryX=1;entryY=0.755;entryDx=0;entryDy=0;entryPerimeter=0;" edge="1" parent="XGVx-LcwlVfjTN6PvsQ9-50" source="XGVx-LcwlVfjTN6PvsQ9-2" target="XGVx-LcwlVfjTN6PvsQ9-12">
          <mxGeometry relative="1" as="geometry" />
        </mxCell>
        <mxCell id="XGVx-LcwlVfjTN6PvsQ9-36" style="edgeStyle=orthogonalEdgeStyle;rounded=0;orthogonalLoop=1;jettySize=auto;html=1;exitX=0.037;exitY=0.792;exitDx=0;exitDy=0;exitPerimeter=0;entryX=1.015;entryY=0.542;entryDx=0;entryDy=0;entryPerimeter=0;" edge="1" parent="XGVx-LcwlVfjTN6PvsQ9-50" source="XGVx-LcwlVfjTN6PvsQ9-26" target="XGVx-LcwlVfjTN6PvsQ9-6">
          <mxGeometry relative="1" as="geometry">
            <mxPoint x="250.00000000000003" y="135" as="sourcePoint" />
            <mxPoint x="260" y="150" as="targetPoint" />
            <Array as="points" />
          </mxGeometry>
        </mxCell>
        <mxCell id="XGVx-LcwlVfjTN6PvsQ9-39" value="" style="endArrow=none;html=1;rounded=0;exitX=0;exitY=0.5;exitDx=0;exitDy=0;entryX=0.006;entryY=0.923;entryDx=0;entryDy=0;entryPerimeter=0;dashed=1;" edge="1" parent="XGVx-LcwlVfjTN6PvsQ9-50">
          <mxGeometry width="50" height="50" relative="1" as="geometry">
            <mxPoint x="350" y="99.75999999999999" as="sourcePoint" />
            <mxPoint x="315" y="99.75999999999999" as="targetPoint" />
          </mxGeometry>
        </mxCell>
        <mxCell id="XGVx-LcwlVfjTN6PvsQ9-40" value="" style="endArrow=none;html=1;rounded=0;exitX=0;exitY=0.5;exitDx=0;exitDy=0;entryX=0.006;entryY=0.923;entryDx=0;entryDy=0;entryPerimeter=0;dashed=1;" edge="1" parent="XGVx-LcwlVfjTN6PvsQ9-50">
          <mxGeometry width="50" height="50" relative="1" as="geometry">
            <mxPoint x="350" y="149.76" as="sourcePoint" />
            <mxPoint x="315" y="149.76" as="targetPoint" />
          </mxGeometry>
        </mxCell>
        <mxCell id="XGVx-LcwlVfjTN6PvsQ9-41" value="" style="endArrow=none;html=1;rounded=0;entryX=0.006;entryY=0.923;entryDx=0;entryDy=0;entryPerimeter=0;" edge="1" parent="XGVx-LcwlVfjTN6PvsQ9-50">
          <mxGeometry width="50" height="50" relative="1" as="geometry">
            <mxPoint x="270" y="370" as="sourcePoint" />
            <mxPoint x="245.00000000000003" y="369.57000000000005" as="targetPoint" />
          </mxGeometry>
        </mxCell>
        <mxCell id="XGVx-LcwlVfjTN6PvsQ9-42" value="Сертификат dev1" style="rounded=0;whiteSpace=wrap;html=1;" vertex="1" parent="XGVx-LcwlVfjTN6PvsQ9-50">
          <mxGeometry x="445" y="560" width="160" height="40" as="geometry" />
        </mxCell>
        <mxCell id="XGVx-LcwlVfjTN6PvsQ9-43" value="Настройки виртуального хоста для dev1" style="rounded=0;whiteSpace=wrap;html=1;rotation=-90;" vertex="1" parent="XGVx-LcwlVfjTN6PvsQ9-50">
          <mxGeometry x="405" y="295" width="570" height="40" as="geometry" />
        </mxCell>
        <mxCell id="XGVx-LcwlVfjTN6PvsQ9-44" value="" style="endArrow=none;html=1;rounded=0;entryX=0.006;entryY=0.923;entryDx=0;entryDy=0;entryPerimeter=0;exitX=0;exitY=0.5;exitDx=0;exitDy=0;" edge="1" parent="XGVx-LcwlVfjTN6PvsQ9-50" source="XGVx-LcwlVfjTN6PvsQ9-42">
          <mxGeometry width="50" height="50" relative="1" as="geometry">
            <mxPoint x="270" y="580.22" as="sourcePoint" />
            <mxPoint x="245.00000000000003" y="579.7900000000001" as="targetPoint" />
          </mxGeometry>
        </mxCell>
        <mxCell id="XGVx-LcwlVfjTN6PvsQ9-46" style="edgeStyle=orthogonalEdgeStyle;rounded=0;orthogonalLoop=1;jettySize=auto;html=1;exitX=0;exitY=0.5;exitDx=0;exitDy=0;entryX=0.57;entryY=0;entryDx=0;entryDy=0;entryPerimeter=0;" edge="1" parent="XGVx-LcwlVfjTN6PvsQ9-50" source="XGVx-LcwlVfjTN6PvsQ9-12" target="XGVx-LcwlVfjTN6PvsQ9-43">
          <mxGeometry relative="1" as="geometry" />
        </mxCell>
        <mxCell id="XGVx-LcwlVfjTN6PvsQ9-47" style="edgeStyle=orthogonalEdgeStyle;rounded=0;orthogonalLoop=1;jettySize=auto;html=1;exitX=1;exitY=0.5;exitDx=0;exitDy=0;" edge="1" parent="XGVx-LcwlVfjTN6PvsQ9-50" source="XGVx-LcwlVfjTN6PvsQ9-42">
          <mxGeometry relative="1" as="geometry">
            <mxPoint x="670" y="580" as="targetPoint" />
          </mxGeometry>
        </mxCell>
        <mxCell id="XGVx-LcwlVfjTN6PvsQ9-51" value="" style="group" vertex="1" connectable="0" parent="1">
          <mxGeometry x="39.99999999999997" y="850" width="740" height="620" as="geometry" />
        </mxCell>
        <mxCell id="XGVx-LcwlVfjTN6PvsQ9-52" value="Контейнер с микросервисом" style="rounded=0;whiteSpace=wrap;html=1;" vertex="1" parent="XGVx-LcwlVfjTN6PvsQ9-51">
          <mxGeometry x="350" y="30" width="190" height="40" as="geometry" />
        </mxCell>
        <mxCell id="XGVx-LcwlVfjTN6PvsQ9-53" value="Контейнер с микросервисом" style="rounded=0;whiteSpace=wrap;html=1;" vertex="1" parent="XGVx-LcwlVfjTN6PvsQ9-51">
          <mxGeometry x="350" y="130" width="190" height="40" as="geometry" />
        </mxCell>
        <mxCell id="XGVx-LcwlVfjTN6PvsQ9-54" value="..." style="rounded=0;whiteSpace=wrap;html=1;strokeColor=default;" vertex="1" parent="XGVx-LcwlVfjTN6PvsQ9-51">
          <mxGeometry x="350" y="80" width="190" height="40" as="geometry" />
        </mxCell>
        <mxCell id="XGVx-LcwlVfjTN6PvsQ9-55" value="Том с БД" style="rounded=0;whiteSpace=wrap;html=1;" vertex="1" parent="XGVx-LcwlVfjTN6PvsQ9-51">
          <mxGeometry x="350" y="410" width="120" height="40" as="geometry" />
        </mxCell>
        <mxCell id="XGVx-LcwlVfjTN6PvsQ9-56" value="Том со статикой" style="rounded=0;whiteSpace=wrap;html=1;" vertex="1" parent="XGVx-LcwlVfjTN6PvsQ9-51">
          <mxGeometry x="350" y="480" width="180" height="40" as="geometry" />
        </mxCell>
        <mxCell id="XGVx-LcwlVfjTN6PvsQ9-57" style="edgeStyle=orthogonalEdgeStyle;rounded=0;orthogonalLoop=1;jettySize=auto;html=1;entryX=0.5;entryY=0;entryDx=0;entryDy=0;exitX=0.111;exitY=0.084;exitDx=0;exitDy=0;exitPerimeter=0;dashed=1;" edge="1" parent="XGVx-LcwlVfjTN6PvsQ9-51" source="XGVx-LcwlVfjTN6PvsQ9-59" target="XGVx-LcwlVfjTN6PvsQ9-55">
          <mxGeometry relative="1" as="geometry" />
        </mxCell>
        <mxCell id="XGVx-LcwlVfjTN6PvsQ9-58" style="edgeStyle=orthogonalEdgeStyle;rounded=0;orthogonalLoop=1;jettySize=auto;html=1;exitX=-0.016;exitY=0.153;exitDx=0;exitDy=0;exitPerimeter=0;dashed=1;" edge="1" parent="XGVx-LcwlVfjTN6PvsQ9-51" source="XGVx-LcwlVfjTN6PvsQ9-59" target="XGVx-LcwlVfjTN6PvsQ9-56">
          <mxGeometry relative="1" as="geometry">
            <mxPoint x="320" y="250" as="sourcePoint" />
          </mxGeometry>
        </mxCell>
        <mxCell id="XGVx-LcwlVfjTN6PvsQ9-59" value="docker-compose" style="rounded=0;whiteSpace=wrap;html=1;textDirection=vertical-rl;rotation=-180;" vertex="1" parent="XGVx-LcwlVfjTN6PvsQ9-51">
          <mxGeometry x="270" y="30" width="45" height="260" as="geometry" />
        </mxCell>
        <mxCell id="XGVx-LcwlVfjTN6PvsQ9-60" value="Проект devN" style="rounded=0;whiteSpace=wrap;html=1;fillColor=none;labelPosition=center;verticalLabelPosition=top;align=center;verticalAlign=bottom;dashed=1;" vertex="1" parent="XGVx-LcwlVfjTN6PvsQ9-51">
          <mxGeometry x="180.00000000000003" width="560" height="620" as="geometry" />
        </mxCell>
        <mxCell id="XGVx-LcwlVfjTN6PvsQ9-61" value="Порты, тома" style="rounded=0;whiteSpace=wrap;html=1;textDirection=vertical-rl;rotation=-180;" vertex="1" parent="XGVx-LcwlVfjTN6PvsQ9-51">
          <mxGeometry x="560" y="30" width="45" height="490" as="geometry" />
        </mxCell>
        <mxCell id="XGVx-LcwlVfjTN6PvsQ9-62" style="edgeStyle=orthogonalEdgeStyle;rounded=0;orthogonalLoop=1;jettySize=auto;html=1;exitX=0;exitY=0.5;exitDx=0;exitDy=0;entryX=0;entryY=0.5;entryDx=0;entryDy=0;" edge="1" parent="XGVx-LcwlVfjTN6PvsQ9-51" source="XGVx-LcwlVfjTN6PvsQ9-63" target="XGVx-LcwlVfjTN6PvsQ9-71">
          <mxGeometry relative="1" as="geometry" />
        </mxCell>
        <mxCell id="XGVx-LcwlVfjTN6PvsQ9-63" value="Репозиторий, ветка devN" style="rounded=0;whiteSpace=wrap;html=1;textDirection=vertical-rl;rotation=-180;" vertex="1" parent="XGVx-LcwlVfjTN6PvsQ9-51">
          <mxGeometry x="2.842170943040401e-14" y="30" width="45" height="390" as="geometry" />
        </mxCell>
        <mxCell id="XGVx-LcwlVfjTN6PvsQ9-64" style="edgeStyle=orthogonalEdgeStyle;rounded=0;orthogonalLoop=1;jettySize=auto;html=1;entryX=0.5;entryY=0;entryDx=0;entryDy=0;" edge="1" parent="XGVx-LcwlVfjTN6PvsQ9-51" source="XGVx-LcwlVfjTN6PvsQ9-65" target="XGVx-LcwlVfjTN6PvsQ9-59">
          <mxGeometry relative="1" as="geometry" />
        </mxCell>
        <mxCell id="XGVx-LcwlVfjTN6PvsQ9-65" value=".env" style="rounded=0;whiteSpace=wrap;html=1;textDirection=vertical-rl;rotation=-180;" vertex="1" parent="XGVx-LcwlVfjTN6PvsQ9-51">
          <mxGeometry x="270" y="330" width="45" height="80" as="geometry" />
        </mxCell>
        <mxCell id="XGVx-LcwlVfjTN6PvsQ9-66" value="" style="endArrow=none;html=1;rounded=0;exitX=0;exitY=0.5;exitDx=0;exitDy=0;entryX=0.006;entryY=0.923;entryDx=0;entryDy=0;entryPerimeter=0;dashed=1;" edge="1" parent="XGVx-LcwlVfjTN6PvsQ9-51" source="XGVx-LcwlVfjTN6PvsQ9-52" target="XGVx-LcwlVfjTN6PvsQ9-59">
          <mxGeometry width="50" height="50" relative="1" as="geometry">
            <mxPoint x="570" y="250" as="sourcePoint" />
            <mxPoint x="320" y="50" as="targetPoint" />
          </mxGeometry>
        </mxCell>
        <mxCell id="XGVx-LcwlVfjTN6PvsQ9-67" value="" style="endArrow=none;html=1;rounded=0;exitX=0;exitY=0.5;exitDx=0;exitDy=0;entryX=0.006;entryY=0.923;entryDx=0;entryDy=0;entryPerimeter=0;" edge="1" parent="XGVx-LcwlVfjTN6PvsQ9-51" source="XGVx-LcwlVfjTN6PvsQ9-55">
          <mxGeometry width="50" height="50" relative="1" as="geometry">
            <mxPoint x="280" y="429.58000000000004" as="sourcePoint" />
            <mxPoint x="245.00000000000003" y="429.58000000000004" as="targetPoint" />
          </mxGeometry>
        </mxCell>
        <mxCell id="XGVx-LcwlVfjTN6PvsQ9-68" value="" style="endArrow=none;html=1;rounded=0;exitX=0;exitY=0.5;exitDx=0;exitDy=0;entryX=0.006;entryY=0.923;entryDx=0;entryDy=0;entryPerimeter=0;" edge="1" parent="XGVx-LcwlVfjTN6PvsQ9-51" source="XGVx-LcwlVfjTN6PvsQ9-56">
          <mxGeometry width="50" height="50" relative="1" as="geometry">
            <mxPoint x="280" y="499.58000000000004" as="sourcePoint" />
            <mxPoint x="245.00000000000003" y="499.58000000000004" as="targetPoint" />
          </mxGeometry>
        </mxCell>
        <mxCell id="XGVx-LcwlVfjTN6PvsQ9-69" value="Docker" style="rounded=0;whiteSpace=wrap;html=1;fillColor=none;labelPosition=center;verticalLabelPosition=top;align=center;verticalAlign=bottom;dashed=1;" vertex="1" parent="XGVx-LcwlVfjTN6PvsQ9-51">
          <mxGeometry x="260" y="20" width="290" height="510" as="geometry" />
        </mxCell>
        <mxCell id="XGVx-LcwlVfjTN6PvsQ9-70" style="edgeStyle=orthogonalEdgeStyle;rounded=0;orthogonalLoop=1;jettySize=auto;html=1;entryX=0.989;entryY=0.658;entryDx=0;entryDy=0;entryPerimeter=0;" edge="1" parent="XGVx-LcwlVfjTN6PvsQ9-51" source="XGVx-LcwlVfjTN6PvsQ9-71" target="XGVx-LcwlVfjTN6PvsQ9-72">
          <mxGeometry relative="1" as="geometry" />
        </mxCell>
        <mxCell id="XGVx-LcwlVfjTN6PvsQ9-71" value="CI/CD" style="rounded=0;whiteSpace=wrap;html=1;" vertex="1" parent="XGVx-LcwlVfjTN6PvsQ9-51">
          <mxGeometry x="70.00000000000003" y="205" width="95" height="40" as="geometry" />
        </mxCell>
        <mxCell id="XGVx-LcwlVfjTN6PvsQ9-72" value="ФС хоста, каталог проекта devN" style="rounded=0;whiteSpace=wrap;html=1;textDirection=vertical-rl;rotation=-180;" vertex="1" parent="XGVx-LcwlVfjTN6PvsQ9-51">
          <mxGeometry x="200.00000000000003" y="30" width="45" height="570" as="geometry" />
        </mxCell>
        <mxCell id="XGVx-LcwlVfjTN6PvsQ9-73" style="edgeStyle=orthogonalEdgeStyle;rounded=0;orthogonalLoop=1;jettySize=auto;html=1;entryX=1.034;entryY=0.184;entryDx=0;entryDy=0;entryPerimeter=0;" edge="1" parent="XGVx-LcwlVfjTN6PvsQ9-51" source="XGVx-LcwlVfjTN6PvsQ9-55" target="XGVx-LcwlVfjTN6PvsQ9-61">
          <mxGeometry relative="1" as="geometry" />
        </mxCell>
        <mxCell id="XGVx-LcwlVfjTN6PvsQ9-74" style="edgeStyle=orthogonalEdgeStyle;rounded=0;orthogonalLoop=1;jettySize=auto;html=1;entryX=1.018;entryY=0.041;entryDx=0;entryDy=0;entryPerimeter=0;" edge="1" parent="XGVx-LcwlVfjTN6PvsQ9-51" source="XGVx-LcwlVfjTN6PvsQ9-56" target="XGVx-LcwlVfjTN6PvsQ9-61">
          <mxGeometry relative="1" as="geometry" />
        </mxCell>
        <mxCell id="XGVx-LcwlVfjTN6PvsQ9-75" style="edgeStyle=orthogonalEdgeStyle;rounded=0;orthogonalLoop=1;jettySize=auto;html=1;entryX=0.963;entryY=0.959;entryDx=0;entryDy=0;entryPerimeter=0;" edge="1" parent="XGVx-LcwlVfjTN6PvsQ9-51" source="XGVx-LcwlVfjTN6PvsQ9-52" target="XGVx-LcwlVfjTN6PvsQ9-61">
          <mxGeometry relative="1" as="geometry" />
        </mxCell>
        <mxCell id="XGVx-LcwlVfjTN6PvsQ9-76" style="edgeStyle=orthogonalEdgeStyle;rounded=0;orthogonalLoop=1;jettySize=auto;html=1;entryX=1;entryY=0.755;entryDx=0;entryDy=0;entryPerimeter=0;" edge="1" parent="XGVx-LcwlVfjTN6PvsQ9-51" source="XGVx-LcwlVfjTN6PvsQ9-53" target="XGVx-LcwlVfjTN6PvsQ9-61">
          <mxGeometry relative="1" as="geometry" />
        </mxCell>
        <mxCell id="XGVx-LcwlVfjTN6PvsQ9-77" style="edgeStyle=orthogonalEdgeStyle;rounded=0;orthogonalLoop=1;jettySize=auto;html=1;exitX=0.037;exitY=0.792;exitDx=0;exitDy=0;exitPerimeter=0;entryX=1.015;entryY=0.542;entryDx=0;entryDy=0;entryPerimeter=0;" edge="1" parent="XGVx-LcwlVfjTN6PvsQ9-51" source="XGVx-LcwlVfjTN6PvsQ9-72" target="XGVx-LcwlVfjTN6PvsQ9-59">
          <mxGeometry relative="1" as="geometry">
            <mxPoint x="250.00000000000003" y="135" as="sourcePoint" />
            <mxPoint x="260" y="150" as="targetPoint" />
            <Array as="points" />
          </mxGeometry>
        </mxCell>
        <mxCell id="XGVx-LcwlVfjTN6PvsQ9-78" value="" style="endArrow=none;html=1;rounded=0;exitX=0;exitY=0.5;exitDx=0;exitDy=0;entryX=0.006;entryY=0.923;entryDx=0;entryDy=0;entryPerimeter=0;dashed=1;" edge="1" parent="XGVx-LcwlVfjTN6PvsQ9-51">
          <mxGeometry width="50" height="50" relative="1" as="geometry">
            <mxPoint x="350" y="99.75999999999999" as="sourcePoint" />
            <mxPoint x="315" y="99.75999999999999" as="targetPoint" />
          </mxGeometry>
        </mxCell>
        <mxCell id="XGVx-LcwlVfjTN6PvsQ9-79" value="" style="endArrow=none;html=1;rounded=0;exitX=0;exitY=0.5;exitDx=0;exitDy=0;entryX=0.006;entryY=0.923;entryDx=0;entryDy=0;entryPerimeter=0;dashed=1;" edge="1" parent="XGVx-LcwlVfjTN6PvsQ9-51">
          <mxGeometry width="50" height="50" relative="1" as="geometry">
            <mxPoint x="350" y="149.76" as="sourcePoint" />
            <mxPoint x="315" y="149.76" as="targetPoint" />
          </mxGeometry>
        </mxCell>
        <mxCell id="XGVx-LcwlVfjTN6PvsQ9-80" value="" style="endArrow=none;html=1;rounded=0;entryX=0.006;entryY=0.923;entryDx=0;entryDy=0;entryPerimeter=0;" edge="1" parent="XGVx-LcwlVfjTN6PvsQ9-51">
          <mxGeometry width="50" height="50" relative="1" as="geometry">
            <mxPoint x="270" y="370" as="sourcePoint" />
            <mxPoint x="245.00000000000003" y="369.57000000000005" as="targetPoint" />
          </mxGeometry>
        </mxCell>
        <mxCell id="XGVx-LcwlVfjTN6PvsQ9-81" value="Сертификат devN" style="rounded=0;whiteSpace=wrap;html=1;" vertex="1" parent="XGVx-LcwlVfjTN6PvsQ9-51">
          <mxGeometry x="445" y="560" width="160" height="40" as="geometry" />
        </mxCell>
        <mxCell id="XGVx-LcwlVfjTN6PvsQ9-82" value="Настройки виртуального хоста для devN" style="rounded=0;whiteSpace=wrap;html=1;rotation=-90;" vertex="1" parent="XGVx-LcwlVfjTN6PvsQ9-51">
          <mxGeometry x="405" y="295" width="570" height="40" as="geometry" />
        </mxCell>
        <mxCell id="XGVx-LcwlVfjTN6PvsQ9-83" value="" style="endArrow=none;html=1;rounded=0;entryX=0.006;entryY=0.923;entryDx=0;entryDy=0;entryPerimeter=0;exitX=0;exitY=0.5;exitDx=0;exitDy=0;" edge="1" parent="XGVx-LcwlVfjTN6PvsQ9-51" source="XGVx-LcwlVfjTN6PvsQ9-81">
          <mxGeometry width="50" height="50" relative="1" as="geometry">
            <mxPoint x="270" y="580.22" as="sourcePoint" />
            <mxPoint x="245.00000000000003" y="579.7900000000001" as="targetPoint" />
          </mxGeometry>
        </mxCell>
        <mxCell id="XGVx-LcwlVfjTN6PvsQ9-84" style="edgeStyle=orthogonalEdgeStyle;rounded=0;orthogonalLoop=1;jettySize=auto;html=1;exitX=0;exitY=0.5;exitDx=0;exitDy=0;entryX=0.57;entryY=0;entryDx=0;entryDy=0;entryPerimeter=0;" edge="1" parent="XGVx-LcwlVfjTN6PvsQ9-51" source="XGVx-LcwlVfjTN6PvsQ9-61" target="XGVx-LcwlVfjTN6PvsQ9-82">
          <mxGeometry relative="1" as="geometry" />
        </mxCell>
        <mxCell id="XGVx-LcwlVfjTN6PvsQ9-85" style="edgeStyle=orthogonalEdgeStyle;rounded=0;orthogonalLoop=1;jettySize=auto;html=1;exitX=1;exitY=0.5;exitDx=0;exitDy=0;" edge="1" parent="XGVx-LcwlVfjTN6PvsQ9-51" source="XGVx-LcwlVfjTN6PvsQ9-81">
          <mxGeometry relative="1" as="geometry">
            <mxPoint x="670" y="580" as="targetPoint" />
          </mxGeometry>
        </mxCell>
        <mxCell id="XGVx-LcwlVfjTN6PvsQ9-87" style="edgeStyle=orthogonalEdgeStyle;rounded=0;orthogonalLoop=1;jettySize=auto;html=1;exitX=0.5;exitY=1;exitDx=0;exitDy=0;entryX=0.224;entryY=-0.023;entryDx=0;entryDy=0;entryPerimeter=0;" edge="1" parent="XGVx-LcwlVfjTN6PvsQ9-51" target="XGVx-LcwlVfjTN6PvsQ9-48">
          <mxGeometry relative="1" as="geometry">
            <mxPoint x="710" y="310.26" as="sourcePoint" />
            <mxPoint x="794" y="310" as="targetPoint" />
          </mxGeometry>
        </mxCell>
        <mxCell id="XGVx-LcwlVfjTN6PvsQ9-86" value="&lt;font style=&quot;font-size: 35px;&quot;&gt;...&lt;/font&gt;" style="rounded=0;whiteSpace=wrap;html=1;strokeColor=none;fillColor=none;" vertex="1" parent="1">
          <mxGeometry x="220" y="740" width="560" height="40" as="geometry" />
        </mxCell>
        <mxCell id="XGVx-LcwlVfjTN6PvsQ9-90" value="Хост" style="rounded=0;whiteSpace=wrap;html=1;dashed=1;fillColor=none;labelPosition=center;verticalLabelPosition=top;align=center;verticalAlign=bottom;" vertex="1" parent="1">
          <mxGeometry x="213" y="38" width="767" height="1452" as="geometry" />
        </mxCell>
        <mxCell id="XGVx-LcwlVfjTN6PvsQ9-88" value="Фаервол" style="rounded=0;whiteSpace=wrap;html=1;rotation=-90;" vertex="1" parent="1">
          <mxGeometry x="260" y="760" width="1380" height="40" as="geometry" />
        </mxCell>
        <mxCell id="XGVx-LcwlVfjTN6PvsQ9-91" style="edgeStyle=orthogonalEdgeStyle;rounded=0;orthogonalLoop=1;jettySize=auto;html=1;exitX=0.5;exitY=1;exitDx=0;exitDy=0;" edge="1" parent="1" source="XGVx-LcwlVfjTN6PvsQ9-90" target="XGVx-LcwlVfjTN6PvsQ9-90">
          <mxGeometry relative="1" as="geometry" />
        </mxCell>
        <mxCell id="XGVx-LcwlVfjTN6PvsQ9-92" value="Клиенты" style="rounded=0;whiteSpace=wrap;html=1;rotation=-90;" vertex="1" parent="1">
          <mxGeometry x="770" y="760" width="615" height="40" as="geometry" />
        </mxCell>
        <mxCell id="XGVx-LcwlVfjTN6PvsQ9-93" value="" style="endArrow=classic;startArrow=classic;html=1;rounded=0;entryX=0.5;entryY=1;entryDx=0;entryDy=0;exitX=0.5;exitY=0;exitDx=0;exitDy=0;" edge="1" parent="1" source="XGVx-LcwlVfjTN6PvsQ9-92" target="XGVx-LcwlVfjTN6PvsQ9-88">
          <mxGeometry width="50" height="50" relative="1" as="geometry">
            <mxPoint x="710" y="950" as="sourcePoint" />
            <mxPoint x="760" y="900" as="targetPoint" />
          </mxGeometry>
        </mxCell>
      </root>
    </mxGraphModel>
  </diagram>
</mxfile>
